<svg width="300" height="301" viewBox="0 0 300 301" fill="none" xmlns="http://www.w3.org/2000/svg">
<rect y="0.5" width="300" height="300" rx="20" fill="url(#paint0_radial_80_755)"/>
<path d="M196.956 109.532L90.7376 170.857C90.3871 170.25 90.086 169.729 89.7849 169.207C85.1161 161.18 80.6274 153.042 75.7298 145.154C70.6139 136.914 57.4188 137.194 51.41 145.544C47.6849 150.719 47.2887 156.054 50.3382 161.336C63.5509 184.221 76.7652 207.109 89.9779 229.994C90.2852 230.526 90.6255 231.043 90.9643 231.557C94.9488 237.58 103.638 239.245 110.47 235.301C117.285 231.366 120.392 222.829 116.965 216.549C112.492 208.352 107.712 200.325 103.068 192.227C102.768 191.708 102.467 191.186 102.157 190.649L208.375 129.323C208.744 129.962 209.047 130.487 209.351 131.013C213.984 139.004 218.525 147.048 223.276 154.967C226.96 161.11 235.77 162.82 242.685 158.959C249.465 155.177 252.683 146.744 249.487 140.415C247.061 135.612 244.253 130.999 241.563 126.334C230.825 107.708 220.052 89.1014 209.331 70.4655C206.572 65.668 202.491 62.7895 196.6 62.7389C190.916 62.6898 186.297 65.1996 183.219 69.9543C180.155 74.6868 179.746 79.6369 182.46 84.3962C186.932 92.2411 191.477 100.047 195.989 107.869C196.291 108.393 196.592 108.915 196.955 109.543L196.956 109.532ZM35.1285 215.975C39.1818 222.995 43.2235 230.022 47.3025 237.028C47.8659 237.997 48.5074 238.95 49.2771 239.761C53.75 244.474 61.4729 245.96 67.9479 241.708C75.6176 236.67 77.4384 228.726 73.1438 221.274C65.3285 207.718 57.5089 194.16 49.6535 180.627C48.9141 179.353 48.0344 178.114 46.9963 177.069C41.7487 171.794 33.6576 171.502 27.2035 176.266C21.2137 180.69 19.3868 188.67 22.9718 194.912C27.0078 201.943 31.0753 208.955 35.1285 215.975Z" fill="url(#paint1_linear_80_755)"/>
<path d="M277.27 107.269C277.407 109.622 277.911 111.995 277.608 114.32C276.841 120.222 272.228 124.989 266.118 126.688C260.581 128.227 254.389 126.267 250.998 121.881C250.435 121.151 249.896 120.396 249.436 119.599C241.551 105.968 233.678 92.3314 225.809 78.6885C222.676 73.2621 222.795 67.7446 226.703 62.3182C232.119 54.798 243.273 53.811 249.666 60.186C249.915 60.4312 250.206 60.6377 250.477 60.8627L277.268 107.267L277.27 107.269Z" fill="url(#paint2_linear_80_755)"/>
<defs>
<radialGradient id="paint0_radial_80_755" cx="0" cy="0" r="1" gradientUnits="userSpaceOnUse" gradientTransform="translate(2.87801e-07 -44.3301) rotate(57.2267) scale(410.075)">
<stop stop-color="#2C8872"/>
<stop offset="1" stop-color="#2C8872" stop-opacity="0.3"/>
</radialGradient>
<linearGradient id="paint1_linear_80_755" x1="86.2227" y1="71.2617" x2="153.205" y2="256.304" gradientUnits="userSpaceOnUse">
<stop stop-color="white"/>
<stop offset="1" stop-color="white" stop-opacity="0"/>
</linearGradient>
<linearGradient id="paint2_linear_80_755" x1="215.745" y1="29.6861" x2="192.17" y2="130.831" gradientUnits="userSpaceOnUse">
<stop stop-color="white"/>
<stop offset="1" stop-color="white" stop-opacity="0"/>
</linearGradient>
</defs>
</svg>
