<svg width="388" height="301" viewBox="0 0 388 301" fill="none" xmlns="http://www.w3.org/2000/svg">
<g filter="url(#filter0_d_80_688)">
<path d="M25.9114 30.5698C25.9114 25.5993 29.9408 21.5698 34.9114 21.5698H353.915C358.885 21.5698 362.915 25.5993 362.915 30.5698V262.822C362.915 267.793 358.885 271.822 353.915 271.822H34.9114C29.9408 271.822 25.9114 267.793 25.9114 262.822V30.5698Z" fill="#EFEFEF" stroke="#858585" stroke-width="10"/>
<path opacity="0.3" d="M179.708 102H209.458L219.375 111.917H239.208C241.947 111.917 244.166 114.137 244.166 116.875V186.292C244.166 189.03 241.947 191.25 239.208 191.25H149.958C147.22 191.25 145 189.03 145 186.292V116.875C145 114.137 147.22 111.917 149.958 111.917H169.791L179.708 102ZM194.583 181.333C211.014 181.333 224.333 168.014 224.333 151.583C224.333 135.153 211.014 121.833 194.583 121.833C178.153 121.833 164.833 135.153 164.833 151.583C164.833 168.014 178.153 181.333 194.583 181.333ZM194.583 171.417C183.629 171.417 174.75 162.537 174.75 151.583C174.75 140.63 183.629 131.75 194.583 131.75C205.537 131.75 214.416 140.63 214.416 151.583C214.416 162.537 205.537 171.417 194.583 171.417Z" fill="#AEAEAE"/>
</g>
<defs>
<filter id="filter0_d_80_688" x="0.911377" y="0.569824" width="387.003" height="300.253" filterUnits="userSpaceOnUse" color-interpolation-filters="sRGB">
<feFlood flood-opacity="0" result="BackgroundImageFix"/>
<feColorMatrix in="SourceAlpha" type="matrix" values="0 0 0 0 0 0 0 0 0 0 0 0 0 0 0 0 0 0 127 0" result="hardAlpha"/>
<feOffset dy="4"/>
<feGaussianBlur stdDeviation="10"/>
<feComposite in2="hardAlpha" operator="out"/>
<feColorMatrix type="matrix" values="0 0 0 0 0 0 0 0 0 0 0 0 0 0 0 0 0 0 0.3 0"/>
<feBlend mode="normal" in2="BackgroundImageFix" result="effect1_dropShadow_80_688"/>
<feBlend mode="normal" in="SourceGraphic" in2="effect1_dropShadow_80_688" result="shape"/>
</filter>
</defs>
</svg>
