<svg width="842" height="468" viewBox="0 0 842 468" fill="none" xmlns="http://www.w3.org/2000/svg">
<g filter="url(#filter0_f_80_674)">
<path d="M839.23 234.436C838.791 226.307 837.022 218.381 834.688 210.571C826.721 183.918 812.125 161.329 791.036 142.75V142.821C791.036 142.821 789.217 141.108 785.694 138.244C783.377 136.369 780.993 134.539 778.539 132.755C777.925 132.309 777.312 131.853 776.61 131.336V131.301C751.916 113.441 696.529 80.7976 618.431 77.7415C615.67 77.7415 612.909 77.7415 610.153 77.7415C609.024 77.7415 607.879 77.8936 606.591 77.5033C606.443 76.956 606.246 76.3478 606.115 75.7346C603.019 61.2551 596.631 48.149 586.631 36.6394C571.641 19.3826 552.371 8.50146 528.888 4.06689C524.68 3.27121 520.44 2.70865 516.133 2.58701C515.278 2.56167 514.429 2.33868 513.58 2.20691H328.11C327.261 2.33868 326.412 2.56167 325.557 2.58701C321.25 2.71372 317.01 3.27121 312.802 4.06689C289.313 8.50653 270.049 19.3877 255.059 36.6394C245.059 48.149 238.671 61.2551 235.575 75.7346C235.482 76.1603 235.367 76.5708 235.252 76.9712L235.236 77.5033C235.186 77.5033 235.142 77.5033 235.093 77.5033C233.806 77.8885 232.66 77.7415 231.537 77.7415C228.82 77.7415 226.108 77.7415 223.39 77.7415C115.361 81.9734 50.785 142.821 50.785 142.821V142.628C29.6196 161.228 14.9798 183.857 6.99685 210.571C4.66279 218.376 2.89308 226.302 2.45476 234.436C2.4164 235.136 2.15889 235.83 2 236.524V261.804C2.15341 262.331 2.39449 262.853 2.44928 263.39C2.56982 264.596 2.50955 265.828 2.6794 267.029C3.63822 273.942 5.01893 280.779 7.04068 287.499C16.5139 318.967 35.2192 344.743 62.9374 364.96C63.6223 365.461 64.3072 365.958 65.0743 366.52V369.425C65.0743 393.564 65.0743 417.703 65.0852 441.847C65.0852 443.302 65.0688 444.787 65.3866 446.201C67.5562 455.931 73.8352 462.12 84.2782 464.638C85.1055 464.836 85.8835 465.211 86.678 465.5H755.001C755.801 465.206 756.579 464.836 757.401 464.638C767.849 462.115 774.123 455.931 776.292 446.201C776.605 444.792 776.594 443.302 776.594 441.847C776.61 417.708 776.605 393.569 776.605 369.425V366.52C777.372 365.958 778.057 365.456 778.741 364.96C806.46 344.743 825.165 318.967 834.638 287.499C836.66 280.779 838.041 273.942 839 267.029C839.164 265.828 839.109 264.601 839.23 263.39C839.285 262.853 839.526 262.331 839.679 261.804V236.524C839.52 235.83 839.263 235.136 839.224 234.436H839.23ZM548.892 77.6908C506.205 77.701 463.518 77.706 420.837 77.7111C378.15 77.706 335.463 77.701 292.782 77.6908C292.628 77.6908 292.469 77.5641 292.146 77.4172C292.365 76.8495 292.53 76.2312 292.825 75.6788C298.836 64.6507 308.227 57.4236 321.157 54.1952C325.508 53.1056 329.968 52.8775 334.444 52.8775C363.242 52.8775 392.039 52.8775 420.831 52.8775C449.629 52.8775 478.427 52.8775 507.219 52.8775C511.695 52.8775 516.155 53.1056 520.505 54.1952C533.436 57.4236 542.827 64.6507 548.837 75.6788C549.138 76.2312 549.297 76.8445 549.517 77.4172C549.193 77.5591 549.04 77.6908 548.881 77.6908H548.892Z" fill="url(#paint0_radial_80_674)"/>
</g>
<defs>
<filter id="filter0_f_80_674" x="0" y="0.206909" width="841.679" height="467.293" filterUnits="userSpaceOnUse" color-interpolation-filters="sRGB">
<feFlood flood-opacity="0" result="BackgroundImageFix"/>
<feBlend mode="normal" in="SourceGraphic" in2="BackgroundImageFix" result="shape"/>
<feGaussianBlur stdDeviation="1" result="effect1_foregroundBlur_80_674"/>
</filter>
<radialGradient id="paint0_radial_80_674" cx="0" cy="0" r="1" gradientUnits="userSpaceOnUse" gradientTransform="translate(420.596 79.4951) rotate(89.9638) scale(386.005 1161.09)">
<stop offset="0.0649938" stop-color="#BC3081"/>
<stop offset="0.24412" stop-color="#F09FC8"/>
<stop offset="0.32" stop-color="#E4A1E4"/>
<stop offset="1" stop-color="#FFEFA4"/>
</radialGradient>
</defs>
</svg>
