<svg width="81" height="80" viewBox="0 0 81 80" fill="none" xmlns="http://www.w3.org/2000/svg">
<path d="M0.0043097 39.9595C0.0043097 50.4647 -0.00835555 60.97 0.00973766 71.4734C0.0187843 76.1984 3.84731 79.9846 8.61125 79.9899C20.2 80.0042 31.7887 80.0024 43.3774 79.9899C48.1974 79.9846 52.0006 76.2002 52.0096 71.4144C52.0241 64.8079 52.0169 58.2015 52.0096 51.595C52.0096 51.2445 51.9789 50.876 51.8685 50.5452C51.4107 49.1609 50.0664 48.3687 48.619 48.594C47.271 48.805 46.2451 50.0033 46.2433 51.434C46.2343 57.8617 46.2415 64.2893 46.2379 70.7169C46.2379 73.2511 45.1885 74.2848 42.6156 74.2866C31.5082 74.2866 20.4008 74.2866 9.29517 74.2866C6.87611 74.2866 5.77423 73.1939 5.77423 70.7938C5.77423 50.2608 5.77423 29.7261 5.77423 9.19309C5.77423 6.78407 6.86164 5.71101 9.3006 5.71101C20.437 5.71101 31.5752 5.71101 42.7115 5.71101C45.136 5.71101 46.2379 6.80017 46.2379 9.19667C46.2379 15.5653 46.2379 21.9339 46.2379 28.3025C46.2379 30.1267 47.4067 31.4072 49.0803 31.4233C50.8227 31.4394 52.0096 30.1821 52.0096 28.3007C52.0132 21.7246 52.0132 15.1468 52.0096 8.57071C52.0096 8.12718 51.9933 7.67471 51.9119 7.24012C51.0833 2.81197 47.6745 0.00770707 43.0969 0.0041302C31.7181 -0.00302352 20.3411 0.000553342 8.96226 0.0041302C3.71885 0.00591864 0.00792834 3.6883 0.00611902 8.89084C0.00250038 19.2476 0.00611902 29.6027 0.00611902 39.9595H0.0043097ZM71.069 42.8532C69.9165 43.9852 68.9575 44.9242 68.0004 45.8667C64.9101 48.9124 61.8107 51.9491 58.7367 55.0091C57.0848 56.6527 57.6638 59.2316 59.8241 59.8844C61.0689 60.2599 62.093 59.8415 63.0013 58.9401C68.5848 53.396 74.1901 47.8715 79.7827 42.3345C81.3894 40.7446 81.3713 39.2298 79.7393 37.6166C76.2093 34.122 72.6775 30.631 69.1439 27.1382C67.0378 25.0565 64.9426 22.9622 62.8167 20.8984C61.5086 19.6268 59.6522 19.6787 58.5015 20.9628C57.4394 22.1503 57.5389 23.8064 58.7837 25.0404C62.5905 28.8086 66.4082 32.5643 70.2204 36.3272C70.443 36.5471 70.6474 36.785 70.984 37.1463C70.2747 37.1463 69.7428 37.1463 69.2108 37.1463C55.8508 37.1463 42.489 37.1516 29.129 37.1373C27.8172 37.1373 26.8438 37.6381 26.2738 38.7845C25.3022 40.7464 26.7804 42.8514 29.1127 42.8514C42.6844 42.8549 56.2561 42.8514 69.8278 42.8514H71.0672L71.069 42.8532Z" fill="#ECA1CC"/>
</svg>
