<svg width="56" height="57" viewBox="0 0 56 57" fill="none" xmlns="http://www.w3.org/2000/svg">
<g filter="url(#filter0_d_82_596)">
<circle cx="28" cy="25" r="25" fill="#E4A1E4"/>
</g>
<path d="M17.7017 16.2339C17.7017 16.2339 17.8099 16.0766 17.9303 15.9487C21.1454 12.5641 25.0389 11.0204 29.7141 11.6153C33.8214 12.1364 37.0144 14.1741 39.2733 17.6054C41.3503 20.7615 42.0312 24.2274 41.2004 27.9463C40.6179 30.5543 39.406 32.8181 37.4912 34.6985C36.3163 35.8538 34.9816 36.7608 33.4994 37.4761C32.5359 37.9406 32.2016 38.9656 32.6514 39.8358C33.1307 40.7624 34.1385 41.0869 35.0996 40.5707C35.9943 40.0889 36.894 39.6023 37.7297 39.0295C40.3893 37.2131 42.3335 34.7796 43.6093 31.8374C44.9489 28.7476 45.2979 25.5104 44.7473 22.1946C44.0664 18.0995 42.1123 14.6755 38.9562 12.0061C34.9398 8.60173 30.2401 7.43908 25.0758 8.24531C21.6198 8.78362 18.6358 10.3469 16.1286 12.7951C15.6001 13.3113 15.1085 13.8643 14.5186 14.4838C14.5014 14.1519 14.4867 13.9528 14.4817 13.7562C14.4473 12.7312 13.6534 11.9446 12.6923 11.9864C11.6599 12.0257 10.9446 12.8467 11.0036 13.9135C11.0921 15.4817 11.1855 17.0524 11.2642 18.6231C11.3355 20.0168 12.2621 20.7394 13.646 20.5329C15.0766 20.3191 16.517 20.1421 17.9549 19.9897C18.6776 19.9135 19.1938 19.5866 19.4838 18.9426C19.764 18.3207 19.7542 17.6448 19.2552 17.1778C18.8275 16.7771 18.2351 16.5485 17.6968 16.2339H17.7017ZM28.458 22.1085C28.458 20.9852 28.4752 19.8619 28.4482 18.7411C28.4408 18.4289 28.3671 18.0872 28.2221 17.8144C27.8558 17.1286 27.0398 16.7771 26.3589 16.9467C25.5256 17.1556 24.9971 17.8365 24.9898 18.8222C24.9726 21.5776 24.9701 24.3306 24.9849 27.086C24.9898 27.9832 25.3978 28.6198 26.2901 28.9467C27.0127 29.2122 27.701 29.5785 28.4089 29.8857C29.6182 30.4142 30.8202 30.9722 32.0517 31.4441C33.025 31.8177 33.8952 31.3949 34.2491 30.483C34.5932 29.5907 34.2 28.5903 33.3618 28.2216C31.855 27.5604 30.3433 26.9115 28.8513 26.2233C28.6719 26.1421 28.4851 25.857 28.4777 25.6604C28.4433 24.4781 28.4605 23.2933 28.4605 22.1085H28.458ZM15.1208 29.4973C15.1159 29.4359 15.1134 29.313 15.0913 29.1925C14.8799 28.0373 14.6833 26.8796 14.4498 25.7267C14.2851 24.9058 13.5698 24.3724 12.7193 24.3797C11.859 24.3871 11.1757 24.9131 11.0626 25.7734C10.9963 26.2872 11.0307 26.8353 11.129 27.3466C11.3256 28.3568 11.5297 29.3794 11.8639 30.3478C12.1294 31.1147 13.0118 31.4638 13.7665 31.2769C14.5923 31.0729 15.1307 30.3871 15.1233 29.4949L15.1208 29.4973ZM19.2528 39.6096C20.381 39.6096 20.9217 39.2311 21.2241 38.4716C21.4797 37.8276 21.2954 37.0533 20.7472 36.5863C19.8353 35.8071 18.9234 35.0279 17.9942 34.2684C17.2396 33.6514 16.2736 33.7497 15.5829 34.4797C15.025 35.0721 14.9955 36.1438 15.6026 36.7583C16.3326 37.4957 17.0971 38.2061 17.9058 38.8526C18.3777 39.2286 18.9701 39.4572 19.2503 39.6096H19.2528ZM27.846 42.0382C28.4556 42.0382 29.0652 42.048 29.6772 42.0357C30.6432 42.0136 31.388 41.2614 31.3782 40.3323C31.3708 39.3442 30.5719 38.5625 29.5838 38.5625C28.4482 38.5625 27.3101 38.5502 26.1745 38.5478C25.2184 38.5478 24.4072 39.3147 24.363 40.261C24.3187 41.1975 25.0955 42.0087 26.0762 42.0357C26.6661 42.0504 27.2561 42.0382 27.846 42.0382Z" fill="white"/>
<path d="M17.7018 16.2339C18.2401 16.5485 18.8325 16.7746 19.2602 17.1778C19.7591 17.6448 19.7665 18.3232 19.4888 18.9426C19.1987 19.5866 18.6801 19.9135 17.9599 19.9897C16.5195 20.1421 15.0815 20.3166 13.651 20.533C12.2671 20.7394 11.3404 20.0192 11.2691 18.6231C11.1856 17.0524 11.0946 15.4817 11.0037 13.9135C10.9422 12.8467 11.6575 12.0258 12.6899 11.984C13.651 11.9422 14.4449 12.7287 14.4793 13.7537C14.4867 13.9528 14.499 14.1495 14.5162 14.4813C15.1061 13.8619 15.5977 13.3088 16.1262 12.7927C18.6358 10.3469 21.6199 8.78362 25.0758 8.24532C30.2401 7.43909 34.9399 8.60419 38.9587 12.0061C42.1148 14.6755 44.0689 18.0995 44.7498 22.1946C45.3004 25.508 44.9514 28.7452 43.6118 31.8374C42.336 34.7821 40.3917 37.2131 37.7322 39.0295C36.894 39.6023 35.9968 40.089 35.1021 40.5707C34.141 41.0869 33.1332 40.7649 32.6539 39.8358C32.2041 38.9656 32.5384 37.9431 33.5019 37.4761C34.9841 36.7608 36.3213 35.8538 37.4937 34.6985C39.4061 32.8181 40.6203 30.5543 41.2029 27.9463C42.0337 24.2274 41.3528 20.7591 39.2758 17.6055C37.0169 14.1741 33.8264 12.1388 29.7166 11.6153C25.039 11.0204 21.1455 12.5641 17.9328 15.9487C17.8124 16.0766 17.7116 16.224 17.7042 16.2339H17.7018Z" fill="white"/>
<path d="M28.4581 22.1085C28.4581 23.2933 28.4409 24.478 28.4753 25.6603C28.4802 25.857 28.6695 26.1421 28.8489 26.2232C30.3434 26.9115 31.8551 27.5604 33.3594 28.2216C34.2 28.5903 34.5909 29.5907 34.2467 30.483C33.8952 31.3949 33.0251 31.8177 32.0493 31.4441C30.8178 30.9697 29.6183 30.4141 28.4065 29.8857C27.6986 29.576 27.0128 29.2097 26.2877 28.9467C25.3954 28.6198 24.9874 27.9856 24.9825 27.086C24.9677 24.3306 24.9702 21.5776 24.9874 18.8221C24.9948 17.8389 25.5232 17.1556 26.3565 16.9467C27.0374 16.7771 27.8534 17.1286 28.2197 17.8143C28.3647 18.0872 28.4384 18.4288 28.4458 18.741C28.4728 19.8619 28.4556 20.9852 28.4556 22.1085H28.4581Z" fill="white"/>
<path d="M15.1208 29.4973C15.1306 30.3896 14.5899 31.0753 13.764 31.2794C13.0094 31.4662 12.127 31.1171 11.8615 30.3502C11.5272 29.3793 11.3232 28.3592 11.1265 27.349C11.0282 26.8377 10.9938 26.2896 11.0602 25.7759C11.1732 24.9155 11.8566 24.3895 12.7169 24.3822C13.5673 24.3748 14.2826 24.9106 14.4473 25.7291C14.6808 26.8795 14.8775 28.0397 15.0889 29.195C15.111 29.3154 15.1134 29.4383 15.1184 29.4997L15.1208 29.4973Z" fill="white"/>
<path d="M19.2528 39.6096C18.9726 39.4572 18.3802 39.2286 17.9083 38.8525C17.0972 38.2061 16.3352 37.4957 15.6051 36.7583C14.998 36.1438 15.0275 35.0721 15.5855 34.4797C16.2762 33.7472 17.2422 33.6514 17.9968 34.2683C18.9259 35.0279 19.8378 35.8046 20.7498 36.5863C21.2955 37.0533 21.4823 37.8276 21.2266 38.4716C20.9243 39.2311 20.3835 39.6096 19.2553 39.6096H19.2528Z" fill="white"/>
<path d="M27.846 42.0381C27.2561 42.0381 26.6662 42.0504 26.0763 42.0357C25.093 42.0086 24.3188 41.1975 24.363 40.261C24.4073 39.3146 25.2184 38.5453 26.1746 38.5477C27.3102 38.5502 28.4482 38.5625 29.5838 38.5625C30.5744 38.5625 31.3708 39.3466 31.3782 40.3323C31.3856 41.2614 30.6433 42.0135 29.6772 42.0357C29.0677 42.048 28.4581 42.0381 27.846 42.0381Z" fill="white"/>
<defs>
<filter id="filter0_d_82_596" x="0" y="0" width="56" height="57" filterUnits="userSpaceOnUse" color-interpolation-filters="sRGB">
<feFlood flood-opacity="0" result="BackgroundImageFix"/>
<feColorMatrix in="SourceAlpha" type="matrix" values="0 0 0 0 0 0 0 0 0 0 0 0 0 0 0 0 0 0 127 0" result="hardAlpha"/>
<feOffset dy="4"/>
<feGaussianBlur stdDeviation="1.5"/>
<feComposite in2="hardAlpha" operator="out"/>
<feColorMatrix type="matrix" values="0 0 0 0 0 0 0 0 0 0 0 0 0 0 0 0 0 0 0.1 0"/>
<feBlend mode="normal" in2="BackgroundImageFix" result="effect1_dropShadow_82_596"/>
<feBlend mode="normal" in="SourceGraphic" in2="effect1_dropShadow_82_596" result="shape"/>
</filter>
</defs>
</svg>
