<svg width="238" height="50" viewBox="0 0 238 50" fill="none" xmlns="http://www.w3.org/2000/svg">
<path d="M96.6522 48.3901C95.3979 48.3901 94.1275 48.2308 92.8748 47.9156C89.1263 46.9747 86.4729 44.5975 84.9693 40.8419C84.9243 40.903 84.8793 40.9641 84.8342 41.0252C83.1586 43.2802 80.7609 46.0547 77.0623 47.5054C75.5812 48.0861 74.1291 48.3804 72.7445 48.3804C71.6992 48.3804 70.67 48.2131 69.6859 47.8818C66.6594 46.8637 64.8535 44.4994 64.3196 40.8531C64.2859 40.628 64.2601 40.4028 64.2376 40.1792C64.2199 40.1841 64.2022 40.1905 64.1846 40.1953C62.8579 40.5958 61.4379 40.9979 59.944 41.1298C59.4632 41.1716 59.3795 41.2504 59.1898 41.4885C56.7117 44.6087 53.711 46.7013 50.2712 47.7113C48.7677 48.152 47.3171 48.3756 45.9615 48.3756C43.0299 48.3756 40.4248 47.3478 38.2217 45.3196C37.2166 44.3948 36.4206 43.2577 35.8144 41.8745C35.0698 42.817 34.2931 43.7643 33.4392 44.6506C31.3824 46.7801 28.9011 48.0121 26.0612 48.3096C25.7669 48.3402 25.4694 48.3563 25.1816 48.3563C21.6807 48.3563 19.0097 46.0756 18.3777 42.5436C17.8116 39.3815 18.4951 36.4043 19.32 33.6572C19.4471 33.2342 19.5789 32.8128 19.7108 32.3898C20.1241 31.0677 20.5149 29.818 20.748 28.5522C20.8284 28.1115 20.7561 27.9056 20.7207 27.8638C20.6901 27.8268 20.5261 27.7319 20.1402 27.7319C20.0356 27.7319 19.9231 27.7383 19.8041 27.7528C18.6848 27.8863 17.7988 28.5264 16.8452 29.8936C15.4172 31.9395 14.7434 34.3713 14.6598 37.7811C14.6517 38.1108 14.6469 38.4422 14.6405 38.7735C14.6179 40.1824 14.5938 41.638 14.3703 43.0952C13.965 45.7217 12.2846 47.5553 9.75986 48.1231C9.0539 48.2823 8.37689 48.3627 7.74812 48.3627C5.701 48.3627 4.03822 47.5473 2.8048 45.9373C1.66305 44.4479 1.56978 42.7543 1.61641 41.445C1.77562 36.9721 2.66651 32.274 4.41612 26.6607C5.47747 23.259 6.75109 19.6578 8.86736 16.3735C9.48326 15.4181 10.1587 14.6428 10.8743 14.0686C11.5722 13.5073 12.3762 13.2114 13.1996 13.2114C14.9765 13.2114 16.4222 14.6042 16.6361 16.5214C16.6538 16.6855 16.6699 16.8511 16.686 17.0152C16.7085 17.25 16.7294 17.4768 16.7599 17.6891C17.0864 17.4575 17.3903 17.1937 17.6396 16.9686C20.0614 14.7828 22.3738 13.6151 24.9146 13.2966C25.3134 13.2467 25.7123 13.221 26.1014 13.221C28.5425 13.221 30.6459 14.186 32.0225 15.9392C33.4456 17.7502 33.8879 20.1451 33.2703 22.6816C32.9664 23.9297 32.5773 25.152 32.2026 26.3326C31.9871 27.0097 31.7652 27.7094 31.5658 28.393C31.4918 28.6471 31.4805 28.9897 31.4773 29.2261C31.4644 30.4565 31.6639 30.5578 31.8761 30.6656C32.2331 30.8474 32.5773 30.939 32.9037 30.939C33.28 30.939 33.6434 30.8184 34.0133 30.5723C35.2757 29.7327 35.9092 28.4187 36.731 26.5095C39.5034 20.0663 43.5365 15.9874 49.0619 14.0381C50.707 13.4574 52.328 13.1631 53.8782 13.1631C55.6761 13.1631 57.4096 13.5572 59.0274 14.334C62.1326 15.825 63.9771 18.6445 64.5094 22.7137C64.7265 24.3736 64.7796 26.0688 64.6686 27.7544C64.6091 28.6503 64.4692 29.522 64.3132 30.3713C65.1687 29.9885 65.9776 29.2824 66.4021 28.2723C67.248 26.2618 67.9797 24.2272 68.7548 22.0752C68.8915 21.6956 69.0298 21.3128 69.1697 20.9252C67.7353 20.2561 66.8154 18.9694 66.5195 17.1632C66.3314 16.0148 66.5034 15.1125 67.0454 14.408C67.5857 13.7051 68.409 13.3095 69.5604 13.1969C71.5529 13.0039 72.923 11.9295 74.002 9.71472L74.1661 9.37696C74.6292 8.41997 75.1084 7.43081 75.734 6.49312C76.739 4.98606 78.2281 4.15613 79.9263 4.15613C80.1675 4.15613 80.4136 4.17221 80.6612 4.20599C81.9059 4.37004 82.9238 4.9555 83.5268 5.85459C84.0993 6.70864 84.2553 7.78787 83.9659 8.89284C83.6828 9.97046 83.3017 11.0014 82.9334 11.997C82.7775 12.4168 82.6167 12.8511 82.4703 13.2741L82.4542 13.3207C82.7131 13.3272 82.9608 13.332 83.2068 13.332C83.596 13.332 83.9385 13.3207 84.2521 13.2998C84.3405 13.2934 84.4258 13.2902 84.5078 13.2902C85.9873 13.2902 87.0293 14.2311 87.2255 15.7446C87.494 17.8114 86.9778 19.6514 85.7364 21.07C84.913 22.0093 83.6394 22.2264 83.2695 22.2714C82.3513 22.3808 81.4443 22.4097 80.5663 22.4371C80.2447 22.4467 79.9215 22.4564 79.5998 22.4709C78.315 22.5272 77.9306 23.0483 77.728 23.8702C77.6251 24.2899 77.5061 24.7001 77.3919 25.0958C77.1475 25.9434 76.9175 26.7427 76.8693 27.489C76.8227 28.2273 76.9047 29.255 77.5656 29.9595C78.2378 30.6769 79.2798 30.8264 80.0373 30.8264C80.0935 30.8264 80.1514 30.8264 80.2093 30.8232C82.5346 30.7573 84.1009 29.5719 84.868 27.3009C86.6337 22.0704 89.4077 18.3019 93.3459 15.78C96.0443 14.0526 98.9068 13.176 101.856 13.176C102.766 13.176 103.692 13.2612 104.606 13.4317C108.37 14.1281 110.254 16.2834 111.172 17.969C112.593 20.5778 112.712 23.9136 111.489 26.8923C109.911 30.7332 106.677 33.3661 102.747 34.1494C103.797 33.9853 104.871 33.6797 105.997 33.231C108.403 32.2692 110.34 30.7348 111.926 28.5409C112.791 27.3443 113.793 27.0934 114.483 27.0934C115.079 27.0934 115.689 27.2816 116.29 27.6531C117.956 28.6809 118.381 30.323 117.427 32.044C114.832 36.726 111.415 41.9951 105.744 45.5689C102.786 47.4347 99.7285 48.3804 96.657 48.3804L96.6522 48.3901ZM51.8826 25.7681C51.807 25.7681 51.7266 25.7713 51.6462 25.7761C49.6859 25.9096 48.1276 27.7785 48.0987 30.0287C48.0906 30.7122 48.2482 31.2511 48.5425 31.5502C48.7805 31.7915 49.1472 31.9137 49.6312 31.9137C49.8338 31.9137 50.0557 31.8912 50.2873 31.8478C52.0546 31.5148 53.5711 29.5799 53.6 27.6225C53.6064 27.1834 53.5357 26.5787 53.1594 26.1975C52.8104 25.8437 52.2717 25.7697 51.8809 25.7697L51.8826 25.7681ZM97.3791 25.0652C97.3887 26.0495 97.728 26.1621 98.0271 26.2602C98.2683 26.339 98.5192 26.3809 98.7701 26.3809C99.8523 26.3809 100.795 25.6603 101.063 24.6277C101.222 24.0165 101.002 23.8525 100.872 23.7527C100.528 23.4938 100.185 23.3748 99.7977 23.3748C99.4101 23.3748 98.9566 23.4986 98.4629 23.7447C97.8181 24.0648 97.416 24.5569 97.3774 25.0668L97.3791 25.0652Z" fill="url(#paint0_linear_82_580)"/>
<path d="M193.405 46.7816H201.489V0L193.405 2.71014V46.7816Z" fill="#DBBFE8"/>
<path d="M79.9231 5.77574C80.0935 5.77574 80.2672 5.787 80.4473 5.81112C81.9477 6.00896 82.7871 7.04315 82.406 8.49392C82.0248 9.94147 81.4411 11.3359 80.9458 12.7545C80.8606 13.0006 80.7657 13.2467 80.6998 13.4976C80.4312 14.5238 80.6965 14.8857 81.7852 14.9194C82.2564 14.9339 82.7292 14.9484 83.202 14.9484C83.5879 14.9484 83.9739 14.9387 84.3582 14.913C84.4081 14.9098 84.4563 14.9082 84.5029 14.9082C85.2073 14.9082 85.5386 15.2942 85.6254 15.9601C85.82 17.4591 85.5257 18.8712 84.5206 20.0164C84.1974 20.3847 83.5815 20.6196 83.0717 20.6807C81.8978 20.8206 80.7062 20.819 79.5226 20.8705C77.7794 20.9477 76.5927 21.7406 76.1617 23.4921C75.8417 24.7901 75.3432 26.0784 75.2596 27.3941C75.0601 30.5369 76.9513 32.4428 80.0308 32.4428C80.1032 32.4428 80.1755 32.4428 80.2479 32.4396C83.2534 32.3544 85.4147 30.6977 86.3844 27.8251C87.8623 23.4471 90.2342 19.6883 94.2062 17.1438C96.5766 15.6255 99.1528 14.794 101.85 14.794C102.658 14.794 103.477 14.868 104.307 15.0224C110.397 16.1499 111.76 21.9915 109.996 26.2891C108.213 30.6302 104.312 32.7919 100.251 32.7919C98.8086 32.7919 97.3485 32.52 95.9543 31.9764C95.75 31.8976 95.5217 31.8799 95.2869 31.8799C95.1164 31.8799 94.9428 31.8879 94.7707 31.8879C94.7064 31.8879 94.6437 31.8879 94.5809 31.8831C94.5729 32.3849 94.4378 32.9286 94.5841 33.3805C94.9588 34.5321 96.0105 34.9809 97.0462 35.3106C98.3391 35.7223 99.6223 35.9105 100.896 35.9105C102.818 35.9105 104.715 35.4795 106.589 34.73C109.316 33.6395 111.506 31.867 113.224 29.4882C113.606 28.9591 114.02 28.7065 114.476 28.7065C114.777 28.7065 115.097 28.8159 115.44 29.0266C116.364 29.596 116.564 30.2796 116.015 31.2687C113.198 36.3512 109.903 41.0477 104.882 44.213C102.306 45.8375 99.5516 46.7768 96.6522 46.7768C95.5442 46.7768 94.4153 46.6401 93.2671 46.3506C89.2806 45.3502 87.0293 42.5451 85.9422 38.7011C85.8119 38.2395 85.7203 37.7666 85.5739 37.1393C84.8406 38.1993 84.2199 39.1514 83.5429 40.0618C81.6582 42.5982 79.4953 44.8194 76.4753 46.0048C75.2515 46.4841 74.002 46.7688 72.7445 46.7688C71.897 46.7688 71.0479 46.6401 70.1988 46.3538C67.4876 45.4435 66.304 43.2898 65.9116 40.6167C65.7701 39.6516 65.7589 38.6657 65.6833 37.6235C65.0288 37.9757 64.4145 38.4437 63.7214 38.6528C62.4413 39.0388 61.1275 39.4088 59.8057 39.5246C58.9646 39.5986 58.4436 39.843 57.9338 40.4848C55.7967 43.174 53.1433 45.1893 49.8209 46.164C48.5055 46.55 47.2158 46.7639 45.9631 46.7639C43.5735 46.7639 41.3237 45.9855 39.312 44.1326C37.8679 42.8041 37.0783 41.0638 36.5991 39.1804C36.5348 38.9295 36.4753 38.677 36.4319 38.4952C35.0602 40.1792 33.7914 41.9709 32.2846 43.5311C30.5671 45.31 28.4492 46.4406 25.8956 46.7076C25.6543 46.7334 25.4163 46.7462 25.1832 46.7462C22.488 46.7462 20.465 45.0639 19.9617 42.2588C19.4583 39.4474 20.063 36.7807 20.8606 34.1188C21.3864 32.3689 22.0023 30.6302 22.3304 28.8417C22.6472 27.1126 21.7499 26.1235 20.1418 26.1235C19.9729 26.1235 19.7976 26.1347 19.6143 26.1556C17.7586 26.3776 16.5348 27.5308 15.5281 28.9719C13.6884 31.6049 13.1304 34.6013 13.0532 37.7409C13.0114 39.4458 13.0404 41.1716 12.7815 42.8491C12.4904 44.7374 11.3486 46.1158 9.40766 46.5532C8.84161 46.6803 8.28521 46.7527 7.74971 46.7527C6.35227 46.7527 5.08186 46.2605 4.08162 44.9577C3.30008 43.9396 3.18108 42.7349 3.2245 41.5013C3.39979 36.5748 4.4933 31.8188 5.95346 27.1384C7.02767 23.6948 8.25144 20.3011 10.2214 17.2436C10.6781 16.5359 11.2313 15.8426 11.8825 15.3199C12.3119 14.9741 12.7702 14.8165 13.1996 14.8165C14.1162 14.8165 14.9074 15.5354 15.0392 16.6983C15.1116 17.3497 15.1373 18.0204 15.3174 18.6429C15.4992 19.2733 15.8642 19.6063 16.3434 19.6063C16.5637 19.6063 16.8066 19.5371 17.0687 19.394C17.6653 19.0675 18.2104 18.6203 18.7186 18.1619C20.5631 16.4973 22.5909 15.2089 25.1172 14.8921C25.4549 14.8503 25.7846 14.8294 26.1046 14.8294C30.1426 14.8294 32.7332 18.1024 31.7105 22.3019C31.2457 24.2063 30.5719 26.0591 30.0236 27.9442C29.9062 28.3479 29.8756 28.787 29.8708 29.21C29.8579 30.36 29.9641 31.4987 31.1492 32.1002C31.733 32.3962 32.3232 32.5474 32.9053 32.5474C33.5903 32.5474 34.2641 32.3383 34.9058 31.9121C36.6248 30.7685 37.416 28.988 38.2088 27.1464C40.4955 21.8339 43.9401 17.5508 49.5974 15.5564C51.0126 15.0578 52.4486 14.7731 53.8798 14.7731C55.3786 14.7731 56.8725 15.0835 58.3326 15.7847C61.2964 17.2082 62.5153 19.8572 62.9157 22.9228C63.1184 24.4797 63.1682 26.0817 63.0637 27.6498C62.9608 29.2068 62.5796 30.746 62.3191 32.2916C62.4864 32.3109 62.6568 32.3206 62.8273 32.3206C64.8374 32.3206 66.9923 31.0162 67.8832 28.8996C69.1214 25.9578 70.1345 22.9212 71.2827 19.825C69.3691 19.6658 68.3849 18.6139 68.1035 16.9058C67.88 15.5419 68.3608 14.9323 69.7132 14.802C72.5402 14.5286 74.2641 12.8478 75.4461 10.4224C75.9478 9.3914 76.4367 8.33951 77.0703 7.38895C77.7537 6.36441 78.7089 5.7677 79.9247 5.7677M98.7717 27.9876C100.528 27.9876 102.155 26.8199 102.621 25.0314C102.884 24.0261 102.679 23.0949 101.838 22.4644C101.184 21.9738 100.496 21.7647 99.7992 21.7647C99.1029 21.7647 98.4227 21.9674 97.7489 22.3035C96.5267 22.9115 95.8208 23.9409 95.7725 25.0233C95.7725 26.5529 96.3933 27.4166 97.527 27.7882C97.9403 27.9233 98.36 27.9876 98.7717 27.9876ZM49.6312 33.5205C49.9319 33.5205 50.2503 33.4899 50.5848 33.4272C53.1127 32.9511 55.1679 30.3809 55.2081 27.645C55.2403 25.493 53.9506 24.1596 51.8809 24.1596C51.7684 24.1596 51.6526 24.1628 51.5352 24.1709C48.7467 24.3607 46.5275 26.9277 46.4889 30.0077C46.4616 32.2144 47.6693 33.5205 49.6296 33.5205M79.9231 2.55896C77.6701 2.55896 75.705 3.64301 74.3928 5.61168C73.7061 6.64105 73.2028 7.68007 72.7155 8.68692L72.5531 9.02147C71.585 11.0078 70.5928 11.492 69.4012 11.6078C67.8044 11.7622 66.5822 12.3782 65.7669 13.4381C64.95 14.4996 64.6686 15.8443 64.9291 17.4333C65.2169 19.1929 66.021 20.6131 67.2206 21.5894C66.9006 22.4805 66.587 23.3522 66.2702 24.2079C66.2317 23.6401 66.177 23.0756 66.103 22.5142C65.4967 17.8708 63.3499 14.6331 59.722 12.8929C57.8856 12.0115 55.9189 11.5643 53.8782 11.5643C52.143 11.5643 50.3436 11.8892 48.5264 12.5294C45.3568 13.6472 42.5845 15.4599 40.2881 17.9175C38.2828 20.0631 36.6361 22.6687 35.2531 25.8822C34.5247 27.5742 34.0181 28.6454 33.1224 29.2421C33.1127 29.2486 33.0999 29.2566 33.0854 29.2663C33.0854 29.2631 33.0854 29.2582 33.0854 29.255C33.0886 28.9768 33.1063 28.8722 33.1111 28.8465C33.3041 28.1838 33.5132 27.5276 33.7351 26.8312C34.1194 25.6249 34.5166 24.3768 34.8334 23.074C35.5603 20.0904 34.9974 17.1326 33.288 14.9564C31.6252 12.8382 29.0056 11.6238 26.103 11.6238C25.6479 11.6238 25.1816 11.6528 24.7152 11.7123C21.7547 12.0838 19.4728 13.4333 17.8132 14.7296C17.014 12.8559 15.2612 11.6126 13.2012 11.6126C12.0096 11.6126 10.8566 12.0324 9.86919 12.8253C9.0185 13.5089 8.22732 14.4128 7.51814 15.5129C5.29735 18.9581 3.97709 22.6815 2.88198 26.1926C1.08733 31.9426 0.175535 36.7742 0.0099006 41.3951C-0.0415587 42.8507 0.0581438 45.006 1.52956 46.9232C3.06208 48.9208 5.21212 49.9775 7.74971 49.9775C8.49748 49.9775 9.29349 49.8842 10.1136 49.6992C13.2719 48.9883 15.4574 46.6144 15.9607 43.3477C16.2019 41.7828 16.226 40.2709 16.2502 38.8088C16.255 38.4807 16.2614 38.1542 16.2678 37.8277C16.3418 34.7541 16.9272 32.5924 18.1638 30.8216C18.368 30.5289 18.5546 30.2956 18.7234 30.1091C18.5562 30.6977 18.368 31.2993 18.1751 31.9169C18.0448 32.3335 17.9097 32.7661 17.7795 33.2004C16.8982 36.1373 16.1681 39.3364 16.7953 42.8314C17.1732 44.9416 18.1654 46.7318 19.6642 48.0088C21.1693 49.2907 23.0782 49.9678 25.1816 49.9678C25.5257 49.9678 25.8779 49.9485 26.2284 49.9132C29.4543 49.5738 32.2701 48.1809 34.5954 45.7716C34.9299 45.4241 35.2515 45.0703 35.5635 44.7148C36.0266 45.3743 36.5493 45.9694 37.133 46.5082C39.6432 48.8178 42.6134 49.9888 45.9615 49.9888C47.4715 49.9888 49.0732 49.7427 50.7231 49.2585C54.404 48.1793 57.6138 45.979 60.2672 42.7188C61.1918 42.6239 62.0908 42.439 62.9383 42.2234C63.9723 46.7462 66.8492 48.6297 69.1713 49.4097C70.3195 49.7958 71.5207 49.992 72.7413 49.992C74.3269 49.992 75.9768 49.6606 77.646 49.006C80.74 47.7917 82.9801 45.7764 84.6686 43.8141C86.8556 47.3365 89.9609 48.8452 92.4791 49.4773C93.8605 49.8247 95.2628 50 96.649 50C100.029 50 103.374 48.9706 106.595 46.9409C109.237 45.2746 111.582 43.1692 113.762 40.5025C115.485 38.3971 117.093 35.9604 118.826 32.8337C120.204 30.3487 119.537 27.7817 117.127 26.294C116.266 25.7632 115.375 25.4946 114.475 25.4946C114.232 25.4946 113.928 25.5155 113.589 25.5863C114.269 22.7008 113.923 19.6819 112.577 17.2098C111.043 14.3951 108.314 12.4956 104.892 11.8619C103.882 11.6753 102.858 11.5804 101.85 11.5804C98.5883 11.5804 95.4332 12.5422 92.4727 14.4385C91.1557 15.2813 89.9609 16.2512 88.8818 17.3529C88.9172 16.7691 88.8947 16.1675 88.8143 15.5499C88.5264 13.3303 86.9087 11.8104 84.7538 11.701C85.0288 10.9371 85.2973 10.1473 85.5161 9.3142C85.9261 7.75567 85.6913 6.21322 84.8567 4.96994C83.9916 3.68162 82.5748 2.84847 80.8654 2.6233C80.5486 2.58148 80.2302 2.56057 79.9198 2.56057L79.9231 2.55896ZM79.3248 24.1307C79.3908 24.1146 79.5001 24.0969 79.6658 24.0889C79.9729 24.076 80.2817 24.0663 80.6081 24.0551C81.5215 24.0261 82.4655 23.9972 83.4529 23.8782C83.7118 23.8476 84.1266 23.7768 84.6059 23.6224C84.1379 24.6196 83.7166 25.6779 83.3371 26.7974C82.7935 28.4074 81.782 29.1794 80.1562 29.2261C80.1144 29.2261 80.0726 29.2277 80.0308 29.2277C79.4197 29.2277 78.9469 29.0974 78.7331 28.869C78.5288 28.6503 78.4323 28.1886 78.4693 27.6016C78.5063 27.0306 78.7122 26.3117 78.9325 25.5525C79.0515 25.1407 79.1737 24.7161 79.2846 24.2674C79.2991 24.2095 79.3136 24.1645 79.3248 24.1307ZM49.718 30.3021C49.7116 30.2345 49.7068 30.1509 49.7084 30.0496C49.7261 28.6551 50.6443 27.4584 51.7571 27.3812C51.8005 27.378 51.8439 27.3764 51.8841 27.3764C51.9243 27.3764 51.9565 27.3764 51.9855 27.3796C51.9919 27.4343 51.9967 27.5051 51.9951 27.5968C51.9758 28.9124 50.9225 30.0914 49.993 30.2651C49.8949 30.2844 49.8033 30.2956 49.7196 30.3005L49.718 30.3021Z" fill="white"/>
<path d="M173.717 17.1036C173.068 17.1036 172.429 17.1454 171.802 17.2259V25.5493C172.376 25.3884 172.981 25.3016 173.606 25.3016C177.273 25.3016 180.246 28.2739 180.246 31.9426C180.246 35.6114 177.274 38.5837 173.606 38.5837C169.938 38.5837 166.967 35.6114 166.967 31.9426V0L158.776 2.52839C157.64 15.9536 147.607 19.254 147.607 19.254C151.823 19.2347 155.718 17.8596 158.883 15.5467V32.3495H158.889C159.105 40.3577 165.661 46.7816 173.719 46.7816C181.777 46.7816 188.555 40.1374 188.555 31.9426C188.555 23.7479 181.912 17.1036 173.719 17.1036H173.717Z" fill="#DBBFE8"/>
<path d="M143.297 27.1111C143.533 25.0797 142.787 23.1737 141.046 22.154C140.258 21.6924 139.4 21.4367 138.503 21.3096C136.043 20.9622 133.663 21.3434 131.331 22.1218C130.025 22.5577 128.772 23.1207 127.56 23.7753C127.447 23.8364 127.333 23.8895 127.171 23.9715C126.204 21.8774 125.27 19.7849 124.315 17.6827C124.41 17.6232 124.479 17.5717 124.556 17.5331C126.841 16.4056 129.192 15.4454 131.664 14.8021C133.438 14.3405 135.243 14.0944 137.07 14.0059C139.417 13.8917 141.748 13.9754 144.035 14.593C145.717 15.0481 147.267 15.7687 148.618 16.8849C150.376 18.3373 151.479 20.1934 152.003 22.4033C152.244 23.4214 152.347 24.454 152.352 25.4979C152.363 28.623 152.37 31.7464 152.378 34.8715C152.383 36.8257 152.386 38.7799 152.391 40.7341C152.394 42.4438 152.399 44.1552 152.404 45.8649C152.404 46.0048 152.404 46.1448 152.404 46.2782C152.095 46.3667 143.832 46.3796 143.432 46.2943V42.6996C143.334 42.7655 143.268 42.7929 143.226 42.8411C141.642 44.6859 139.614 45.7813 137.273 46.3217C134.73 46.9087 132.174 46.9634 129.636 46.3056C126.801 45.5706 124.644 43.9396 123.315 41.2987C122.639 39.9557 122.375 38.5081 122.348 37.0107C122.322 35.5808 122.507 34.188 123.077 32.8659C123.89 30.9792 125.281 29.6395 127.081 28.6937C128.485 27.9555 129.993 27.5518 131.554 27.3266C132.753 27.1529 133.959 27.1014 135.169 27.1046C137.73 27.1127 140.29 27.1062 142.848 27.1062H143.295L143.297 27.1111ZM143.347 32.5748C143.216 32.5587 143.13 32.5378 143.043 32.5394C140.499 32.5474 137.953 32.5458 135.409 32.5716C134.492 32.5812 133.594 32.7388 132.746 33.1136C132.088 33.4031 131.55 33.839 131.268 34.5097C130.77 35.6983 130.779 36.8965 131.394 38.0417C131.963 39.1032 132.92 39.6822 134.057 39.9782C135.012 40.2259 135.985 40.2452 136.964 40.1487C138.262 40.02 139.481 39.6629 140.6 38.9874C141.446 38.4759 142.186 37.8455 142.708 36.9946C143.125 36.3159 143.395 35.5969 143.352 34.775C143.319 34.1735 143.345 33.5671 143.345 32.964V32.578L143.347 32.5748Z" fill="#DBBFE8"/>
<path d="M237.767 33.2117H214.866C214.874 33.3259 214.866 33.416 214.888 33.4948C215.538 35.7594 216.816 37.5383 218.924 38.6609C220.139 39.3075 221.446 39.5954 222.818 39.6163C225.982 39.6613 228.699 38.5725 230.987 36.3947C231.032 36.3513 231.085 36.3143 231.175 36.2403C232.775 37.8567 234.369 39.4699 235.993 41.1121C235.832 41.2922 235.687 41.4659 235.53 41.6268C233.311 43.9075 230.628 45.3792 227.558 46.1576C225.283 46.735 222.97 46.8814 220.632 46.7206C218.564 46.5774 216.561 46.1673 214.657 45.3357C210.114 43.351 207.279 39.9026 206.101 35.1225C205.262 31.7127 205.355 28.2916 206.373 24.9188C207.097 22.5255 208.34 20.4266 210.114 18.6622C212.121 16.6678 214.531 15.3746 217.268 14.6798C218.682 14.3195 220.118 14.1491 221.578 14.1217C223.646 14.0815 225.685 14.2616 227.681 14.831C229.964 15.4808 231.973 16.6083 233.611 18.3437C235.157 19.9811 236.208 21.9063 236.876 24.0487C237.48 25.9884 237.771 27.978 237.807 30.0062C237.825 30.9567 237.802 31.9073 237.797 32.8578C237.797 32.9576 237.781 33.0589 237.767 33.2149V33.2117ZM229.17 27.7786C229.176 27.0869 229.08 26.4516 228.908 25.8324C228.303 23.6466 226.988 22.0832 224.834 21.2855C223.718 20.8721 222.552 20.7821 221.375 20.877C220.217 20.9718 219.13 21.3016 218.153 21.9449C216.508 23.0258 215.501 24.5666 214.951 26.4275C214.822 26.8634 214.734 27.3121 214.62 27.7786H229.168H229.17Z" fill="#DBBFE8"/>
<defs>
<linearGradient id="paint0_linear_82_580" x1="59.7655" y1="4.16739" x2="59.7655" y2="48.3901" gradientUnits="userSpaceOnUse">
<stop offset="0.28" stop-color="#CFD1FA"/>
<stop offset="0.61" stop-color="#F1A0C9"/>
<stop offset="1" stop-color="#FFCFE7"/>
</linearGradient>
</defs>
</svg>
