<svg width="69" height="69" viewBox="0 0 69 69" fill="none" xmlns="http://www.w3.org/2000/svg">
<path d="M34.5 53.3182C24.107 53.3182 15.6818 44.893 15.6818 34.5C15.6818 24.107 24.107 15.6818 34.5 15.6818C44.893 15.6818 53.3182 24.107 53.3182 34.5C53.3182 44.893 44.893 53.3182 34.5 53.3182ZM34.5 47.0455C41.4285 47.0455 47.0455 41.4285 47.0455 34.5C47.0455 27.5713 41.4285 21.9545 34.5 21.9545C27.5713 21.9545 21.9545 27.5713 21.9545 34.5C21.9545 41.4285 27.5713 47.0455 34.5 47.0455ZM31.3636 0H37.6364V9.40909H31.3636V0ZM31.3636 59.5909H37.6364V69H31.3636V59.5909ZM7.88708 12.3226L12.3226 7.88708L18.9758 14.5403L14.5403 18.9758L7.88708 12.3226ZM50.0241 54.4598L54.4598 50.0241L61.113 56.6775L56.6775 61.113L50.0241 54.4598ZM56.6775 7.88708L61.113 12.3226L54.4598 18.9758L50.0241 14.5403L56.6775 7.88708ZM14.5403 50.0241L18.9758 54.4598L12.3226 61.113L7.88708 56.6775L14.5403 50.0241ZM69 31.3636V37.6364H59.5909V31.3636H69ZM9.40909 31.3636V37.6364H0V31.3636H9.40909Z" fill="#282828"/>
</svg>
