<svg width="82" height="80" viewBox="0 0 82 80" fill="none" xmlns="http://www.w3.org/2000/svg">
<path d="M0.516517 39.9595C0.516517 50.4647 0.503851 60.97 0.521945 71.4734C0.530991 76.1984 4.35951 79.9846 9.12346 79.9899C20.7122 80.0042 32.3009 80.0024 43.8896 79.9899C48.7096 79.9846 52.5128 76.2002 52.5218 71.4144C52.5363 64.8079 52.5291 58.2015 52.5218 51.595C52.5218 51.2445 52.4911 50.876 52.3807 50.5452C51.9229 49.1609 50.5786 48.3687 49.1312 48.594C47.7832 48.805 46.7573 50.0033 46.7555 51.434C46.7465 57.8617 46.7537 64.2893 46.7501 70.7169C46.7501 73.2511 45.7007 74.2848 43.1278 74.2866C32.0204 74.2866 20.913 74.2866 9.80738 74.2866C7.38832 74.2866 6.28644 73.1939 6.28644 70.7938C6.28644 50.2608 6.28644 29.7261 6.28644 9.19309C6.28644 6.78407 7.37384 5.71101 9.81281 5.71101C20.9492 5.71101 32.0874 5.71101 43.2237 5.71101C45.6482 5.71101 46.7501 6.80017 46.7501 9.19667C46.7501 15.5653 46.7501 21.9339 46.7501 28.3025C46.7501 30.1267 47.9189 31.4072 49.5925 31.4233C51.3349 31.4394 52.5218 30.1821 52.5218 28.3007C52.5255 21.7246 52.5255 15.1468 52.5218 8.57071C52.5218 8.12718 52.5055 7.67471 52.4241 7.24012C51.5955 2.81197 48.1867 0.00770707 43.6091 0.0041302C32.2303 -0.00302352 20.8533 0.000553342 9.47446 0.0041302C4.23105 0.00591864 0.520135 3.6883 0.518326 8.89084C0.514707 19.2476 0.518326 29.6027 0.518326 39.9595H0.516517ZM71.5812 42.8532C70.4287 43.9852 69.4697 44.9242 68.5126 45.8667C65.4223 48.9124 62.3229 51.9491 59.2489 55.0091C57.597 56.6527 58.176 59.2316 60.3363 59.8844C61.5811 60.2599 62.6052 59.8415 63.5135 58.9401C69.097 53.396 74.7023 47.8715 80.2949 42.3345C81.9016 40.7446 81.8835 39.2298 80.2515 37.6166C76.7215 34.122 73.1897 30.631 69.6561 27.1382C67.55 25.0565 65.4549 22.9622 63.3289 20.8984C62.0208 19.6268 60.1644 19.6787 59.0137 20.9628C57.9516 22.1503 58.0511 23.8064 59.2959 25.0404C63.1027 28.8086 66.9204 32.5643 70.7327 36.3272C70.9552 36.5471 71.1596 36.785 71.4962 37.1463C70.7869 37.1463 70.255 37.1463 69.723 37.1463C56.363 37.1463 43.0012 37.1516 29.6412 37.1373C28.3294 37.1373 27.356 37.6381 26.786 38.7845C25.8144 40.7464 27.2927 42.8514 29.6249 42.8514C43.1966 42.8549 56.7683 42.8514 70.34 42.8514H71.5794L71.5812 42.8532Z" fill="#ECA1CC"/>
</svg>
