<svg width="60" height="62" viewBox="0 0 60 62" fill="none" xmlns="http://www.w3.org/2000/svg">
<path d="M55.4048 39.2674C54.7426 39.2175 54.3614 39.1842 53.9768 39.1576C49.8732 38.8749 46.1275 39.6698 43.2246 42.8293C40.6896 45.5897 40.1177 48.6161 41.5123 51.4829C43.0106 54.5593 46.278 56.4949 49.8532 56.0093C54.5119 55.3774 60.0234 52.4873 59.9632 45.1906C59.8428 30.5871 59.9766 15.9803 60 1.37354C60 1.01103 59.9064 0.645199 59.8161 0C57.261 0.246107 54.8095 0.512169 52.3514 0.711715C40.305 1.69614 28.3421 3.24595 16.4997 5.69372C15.2355 5.95645 14.8041 6.42871 14.8041 7.74572C14.8041 19.5422 14.7238 31.3354 14.667 43.1319C14.667 43.7705 14.667 44.4123 14.667 45.0409C13.6469 45.0409 12.8777 45.0542 12.1085 45.0409C8.0752 44.9644 4.56026 46.1051 1.96502 49.3544C0.0219356 51.7856 -0.670351 54.4695 0.761043 57.3662C2.23257 60.3428 4.73082 61.9026 8.06851 61.9957C13.9713 62.1586 18.9478 57.6888 19.0581 51.8155C19.2588 41.2362 19.2722 30.6536 19.2989 20.0743C19.2989 18.8106 19.6902 18.4015 20.9243 18.2152C29.0812 16.9847 37.2281 15.6644 45.3784 14.3806C48.7027 13.8585 52.0303 13.3596 55.4048 12.8408V39.2707V39.2674Z" fill="#282828"/>
</svg>
